# xmcd CD database file generated by OrangeCD 6.1
#
# Track frame offsets:
#	150
#	13661
#	30922
#	45464
#	61938
#	78292
#	93924
#	106927
#	125304
#	143661
#	165225
#	183000
#	204785
#
# Disc length: 2910 seconds
#
# Revision: 0
# Processed by: cddbd v1.5.2PL0 Copyright (c) Steve Scherf et al.
# Submitted via: OrangeCD 6.1
#
DISCID=880b5c0d
DTITLE=Reba McEntire - Keep On Loving You
DYEAR=2009
DGENRE=
TTITLE0=Strange
TTITLE1=Just When I Thought I'd Stopped Loving You
TTITLE2=I Keep On Lovin' You
TTITLE3=I Want A Cowboy
TTITLE4=Consider Me Gone
TTITLE5=But Why
TTITLE6=Pink Guitar
TTITLE7=She's Turning 50 Today
TTITLE8=Eight Crazy Hours (In The Story Of Love)
TTITLE9=Nothing To Lose
TTITLE10=Over You
TTITLE11=Maggie Creek Road
TTITLE12=I'll Have What She's Having
EXTD=
EXTT0=
EXTT1=
EXTT2=
EXTT3=
EXTT4=
EXTT5=
EXTT6=
EXTT7=
EXTT8=
EXTT9=
EXTT10=
EXTT11=
EXTT12=
PLAYORDER=
